General
Complete name                    : HBO 24.7 Penguins-Capitals - Road to the NHL Winter Classic part2 -magicpotatoes-.mp4
Format                           : MPEG-4
Format profile                   : Base Media
Codec ID                         : isom
File size                        : 1.31 GiB
Duration                         : 58mn 24s
Overall bit rate                 : 3 200 Kbps
Encoded date                     : UTC 2010-12-22 09:12:23
Tagged date                      : UTC 2010-12-22 09:12:23

Video
ID                               : 1
Format                           : AVC
Format/Info                      : Advanced Video Codec
Format profile                   : High@L4.1
Format settings, CABAC           : Yes
Format settings, ReFrames        : 3 frames
Codec ID                         : avc1
Codec ID/Info                    : Advanced Video Coding
Duration                         : 58mn 24s
Bit rate mode                    : Variable
Bit rate                         : 3 000 Kbps
Maximum bit rate                 : 14.0 Mbps
Width                            : 1 280 pixels
Height                           : 720 pixels
Display aspect ratio             : 16:9
Frame rate mode                  : Constant
Frame rate                       : 59.940 fps
Color space                      : YUV
Chroma subsampling               : 4:2:0
Bit depth                        : 8 bits
Scan type                        : Progressive
Bits/(Pixel*Frame)               : 0.054
Stream size                      : 1.22 GiB (94%)
Writing library                  : x264 core 98 r1649 c54c47d
Encoding settings                : cabac=1 / ref=4 / deblock=1:0:0 / analyse=0x3:0x113 / me=hex / subme=7 / psy=1 / psy_rd=1.00:0.00 / mixed_ref=1 / me_range=16 / chroma_me=1 / trellis=1 / 8x8dct=1 / cqm=0 / deadzone=21,11 / fast_pskip=1 / chroma_qp_offset=-2 / threads=6 / sliced_threads=0 / slices=4 / nr=0 / decimate=1 / interlaced=0 / constrained_intra=0 / bframes=3 / b_pyramid=1 / b_adapt=1 / b_bias=0 / direct=1 / weightb=1 / weightp=0 / keyint=24 / keyint_min=2 / scenecut=40 / intra_refresh=0 / rc_lookahead=40 / rc=2pass / mbtree=1 / bitrate=3000 / ratetol=1.0 / qcomp=0.60 / qpmin=10 / qpmax=51 / qpstep=4 / cplxblur=20.0 / qblur=0.5 / vbv_maxrate=14000 / vbv_bufsize=14500 / ip_ratio=1.40 / aq=1:1.00 / nal_hrd=vbr
Encoded date                     : UTC 2010-12-22 07:59:54
Tagged date                      : UTC 2010-12-22 09:12:53
Color primaries                  : BT.709-5, BT.1361, IEC 61966-2-4, SMPTE RP177
Transfer characteristics         : BT.709-5, BT.1361
Matrix coefficients              : BT.709-5, BT.1361, IEC 61966-2-4 709, SMPTE RP177

Audio
ID                               : 2
Format                           : AAC
Format/Info                      : Advanced Audio Codec
Format version                   : Version 4
Format profile                   : LC
Format settings, SBR             : No
Codec ID                         : 40
Duration                         : 58mn 24s
Bit rate mode                    : Variable
Bit rate                         : 192 Kbps
Maximum bit rate                 : 231 Kbps
Channel(s)                       : 2 channels
Channel positions                : Front: L R
Sampling rate                    : 48.0 KHz
Stream size                      : 80.2 MiB (6%)
Encoded date                     : UTC 2010-12-22 09:12:50
Tagged date                      : UTC 2010-12-22 09:12:53


as you can see, it's 720p 60FPS. make sure your computer will be able to play this before downloading

no more RAR files
no more audio issues, used AAC this time